<svg xmlns="http://www.w3.org/2000/svg" width="123.348" height="16.076" viewBox="0 0 123.348 16.076">
  <g id="Group_42" data-name="Group 42" transform="translate(-497.058 -2456.338)">
    <path id="Path_8" data-name="Path 8" d="M617.126,2472.413l-5.2-2.771-5.229,2.71,1.029-5.8-4.194-4.136,5.834-.813,2.637-5.267,2.576,5.3,5.824.881-4.242,4.087Z" fill="gray"/>
    <path id="Path_9" data-name="Path 9" d="M591.8,2472.413l-5.2-2.771-5.229,2.71,1.029-5.8-4.194-4.136,5.834-.813,2.637-5.267,2.576,5.3,5.824.881-4.242,4.087Z" fill="#ff9700"/>
    <path id="Path_10" data-name="Path 10" d="M566.475,2472.413l-5.2-2.771-5.229,2.71,1.029-5.8-4.194-4.136,5.834-.813,2.637-5.267,2.576,5.3,5.824.881-4.242,4.087Z" fill="#ff9700"/>
    <path id="Path_11" data-name="Path 11" d="M538.993,2472.413l-5.2-2.771-5.229,2.71,1.029-5.8-4.194-4.136,5.834-.813,2.638-5.267,2.576,5.3,5.824.881-4.242,4.087Z" fill="#ff9700"/>
    <path id="Path_12" data-name="Path 12" d="M510.65,2472.413l-5.2-2.771-5.229,2.71,1.029-5.8-4.194-4.136,5.834-.813,2.637-5.267,2.576,5.3,5.824.881-4.242,4.087Z" fill="#ff9700"/>
  </g>
</svg>
